<?xml version="1.0" encoding="UTF-8" standalone="no"?>
<svg
   class="icon icon-tabler icon-tabler-palette"
   width="24"
   height="24"
   viewBox="0 0 24 24"
   stroke-width="2"
   stroke="currentColor"
   fill="none"
   stroke-linecap="round"
   stroke-linejoin="round"
   version="1.1"
   id="svg5"
   sodipodi:docname="logo.svg"
   inkscape:version="1.3 (0e150ed6c4, 2023-07-21)"
   inkscape:export-filename="logo.png"
   inkscape:export-xdpi="128"
   inkscape:export-ydpi="128"
   xmlns:inkscape="http://www.inkscape.org/namespaces/inkscape"
   xmlns:sodipodi="http://sodipodi.sourceforge.net/DTD/sodipodi-0.dtd"
   xmlns="http://www.w3.org/2000/svg"
   xmlns:svg="http://www.w3.org/2000/svg">
  <defs
     id="defs5" />
  <sodipodi:namedview
     id="namedview5"
     pagecolor="#ffffff"
     bordercolor="#000000"
     borderopacity="0.25"
     inkscape:showpageshadow="2"
     inkscape:pageopacity="0.0"
     inkscape:pagecheckerboard="0"
     inkscape:deskcolor="#d1d1d1"
     inkscape:zoom="32"
     inkscape:cx="15.765625"
     inkscape:cy="11.640625"
     inkscape:window-width="1920"
     inkscape:window-height="1027"
     inkscape:window-x="1912"
     inkscape:window-y="-8"
     inkscape:window-maximized="1"
     inkscape:current-layer="svg5" />
  <g
     id="g10"
     inkscape:label="logo">
    <path
       stroke="none"
       d="M0 0h24v24H0z"
       fill="none"
       id="path1" />
    <path
       d="M12 21a9 9 0 0 1 0 -18c4.97 0 9 3.582 9 8c0 1.06 -.474 2.078 -1.318 2.828c-.844 .75 -1.989 1.172 -3.182 1.172h-2.5a2 2 0 0 0 -1 3.75a1.3 1.3 0 0 1 -1 2.25"
       id="path2" />
    <path
       d="M8.5 10.5m-1 0a1 1 0 1 0 2 0a1 1 0 1 0 -2 0"
       id="path3" />
    <path
       d="M12.5 7.5m-1 0a1 1 0 1 0 2 0a1 1 0 1 0 -2 0"
       id="path4" />
    <path
       d="m 16.5,10.5 m -1,0 a 1,1 0 1 0 2,0 1,1 0 1 0 -2,0"
       id="path5"
       style="display:inline" />
  </g>
  <g
     id="g9"
     inkscape:label="fill">
    <path
       style="display:inline;fill:#ffffff;fill-opacity:1;stroke:#ffffff;stroke-width:0.0577617"
       d="M 11.537906,19.969133 C 9.6082027,19.863112 7.7682258,19.039083 6.3832896,17.66065 5.1159084,16.39922 4.3443231,14.854516 4.0823264,13.054152 4.011292,12.566024 4.0110196,11.427564 4.081822,10.945848 4.4627389,8.3542178 5.954534,6.2023969 8.2310469,4.9608516 8.922212,4.5839099 9.839922,4.2685918 10.642599,4.1322606 c 0.94023,-0.1596938 2.061616,-0.1442631 3.051191,0.041986 2.946155,0.5544978 5.32996,2.5840352 6.057225,5.157035 0.159699,0.5650024 0.212971,0.9471494 0.215008,1.5423644 0.0022,0.629794 -0.03612,0.813565 -0.267686,1.285199 -0.431583,0.879017 -1.291817,1.50094 -2.421832,1.75091 -0.262759,0.05812 -0.389271,0.06322 -2.041848,0.08231 -1.656245,0.01913 -1.775567,0.02396 -1.99278,0.08065 -0.528069,0.137815 -0.960592,0.379982 -1.355073,0.758701 -0.943052,0.905367 -1.196656,2.277958 -0.638561,3.456108 0.218497,0.461252 0.533267,0.846782 0.926728,1.135055 0.09438,0.06915 0.181148,0.139629 0.192818,0.156624 0.03181,0.04633 0.02636,0.214462 -0.0091,0.280731 -0.03968,0.07413 -0.198926,0.141336 -0.321657,0.135735 -0.05213,-0.0024 -0.27674,-0.01432 -0.499123,-0.02654 z M 8.9963899,12.451285 C 9.9417458,12.19928 10.551391,11.368818 10.504366,10.397112 10.476629,9.8239477 10.226943,9.3214992 9.7863752,8.9522845 9.143537,8.4135584 8.2035604,8.3405077 7.465704,8.7719321 6.8690045,9.1208222 6.4981949,9.7824335 6.4981949,10.498195 c 0,1.016902 0.702221,1.834429 1.7130683,1.994357 0.1903524,0.03012 0.5976549,0.0087 0.7851267,-0.04127 z m 8.0000001,0 C 17.941746,12.19928 18.551391,11.368818 18.504366,10.397112 18.476629,9.8239477 18.226943,9.3214992 17.786375,8.9522845 17.143537,8.4135584 16.20356,8.3405077 15.465704,8.7719321 c -0.5967,0.3488901 -0.967509,1.0105014 -0.967509,1.7262629 0,1.016902 0.702221,1.834429 1.713068,1.994357 0.190353,0.03012 0.597655,0.0087 0.785127,-0.04127 z M 12.903745,9.4711847 C 13.031216,9.4453817 13.243011,9.36984 13.399316,9.2944271 13.917103,9.0446091 14.327173,8.5316939 14.45583,7.9729378 14.509215,7.7410905 14.516274,7.2845534 14.469681,7.0771206 14.321264,6.4163675 13.877933,5.8900868 13.256318,5.6367313 12.993792,5.5297322 12.822511,5.4981884 12.503597,5.4981078 c -0.574409,-1.452e-4 -1.014223,0.1803166 -1.417092,0.5814519 -0.209687,0.2087846 -0.27016,0.2914756 -0.381104,0.5211245 -0.170943,0.3538446 -0.235828,0.6664843 -0.212339,1.0231301 0.0808,1.2268165 1.208204,2.0907775 2.410683,1.8473704 z"
       id="path7" />
    <path
       style="display:inline;fill:#ffffff;fill-opacity:1;stroke:#ffffff;stroke-width:0.0078125"
       d="m 15.789063,13.979267 v -0.01941 l 0.09082,-0.0023 c 0.04995,-0.0013 0.212988,-0.0042 0.362304,-0.0065 0.61806,-0.0095 0.805639,-0.02094 0.994141,-0.06051 0.578428,-0.121444 1.120173,-0.358304 1.538468,-0.672645 0.135703,-0.101978 0.222491,-0.177579 0.346334,-0.301691 0.262343,-0.262915 0.443766,-0.527151 0.610324,-0.888916 0.14225,-0.30897 0.185799,-0.484094 0.202005,-0.81232 0.0086,-0.173304 0.0043,-0.588239 -0.0078,-0.771665 C 19.899347,10.047323 19.82858,9.6780043 19.693227,9.2304688 19.641612,9.0598087 19.557303,8.82099 19.501201,8.6865234 c -0.0015,-0.00365 0.0052,-0.00488 0.02672,-0.00488 h 0.02876 l 0.01117,0.02832 c 0.204554,0.5185436 0.346997,1.0707198 0.39476,1.5302736 0.02023,0.194693 0.03346,0.483495 0.03355,0.732422 7e-5,0.19738 -0.01462,0.402269 -0.03949,0.550782 -0.02892,0.172688 -0.08513,0.333748 -0.2027,0.580755 -0.130232,0.273618 -0.271625,0.491182 -0.459659,0.707286 -0.0943,0.108374 -0.274673,0.280794 -0.393912,0.376537 -0.409661,0.328937 -0.917167,0.573469 -1.486863,0.716415 -0.193434,0.04854 -0.29578,0.06613 -0.452591,0.0778 -0.155421,0.01157 -0.221939,0.01299 -0.68457,0.01467 l -0.487304,0.0018 z"
       id="path8" />
    <path
       style="display:inline;fill:#ffffff;fill-opacity:1;stroke:#ffffff;stroke-width:0.0078125"
       d="m 16.294922,12.529057 c -0.119565,-0.0092 -0.286263,-0.04558 -0.44043,-0.09619 l -0.06543,-0.02148 v -0.02935 c 0,-0.02638 6.91e-4,-0.02908 0.0068,-0.02664 0.103689,0.0411 0.272742,0.08643 0.399414,0.10709 0.155975,0.02544 0.435953,0.02047 0.66211,-0.01177 0.0965,-0.01375 0.17128,-0.03298 0.291015,-0.07479 0.165837,-0.05792 0.340204,-0.145492 0.478516,-0.240324 0.441885,-0.302974 0.733392,-0.758781 0.823685,-1.287934 0.03938,-0.230803 0.03877,-0.462578 -0.0019,-0.705078 C 18.36661,9.6521208 18.096221,9.2147459 17.684775,8.9067399 17.580323,8.8285476 17.448333,8.7496064 17.344329,8.703125 l -0.0437,-0.019531 0.06109,-0.00108 0.06109,-0.00108 0.04456,0.023606 c 0.288656,0.1529195 0.557846,0.4000459 0.740603,0.6799001 0.24405,0.37371 0.355179,0.8206069 0.319049,1.2830249 -0.03035,0.388382 -0.167038,0.753656 -0.396145,1.058594 -0.206096,0.274309 -0.484699,0.495237 -0.800788,0.635012 -0.279398,0.123551 -0.491009,0.165695 -0.851562,0.169597 -0.0752,8.14e-4 -0.157813,-1.38e-4 -0.183594,-0.0021 z"
       id="path9" />
  </g>
</svg>
